<mxfile host="app.diagrams.net" agent="Mozilla/5.0 (X11; Linux x86_64) AppleWebKit/537.36 (KHTML, like Gecko) Chrome/138.0.0.0 Safari/537.36" version="27.2.0">
  <diagram id="5aYM0VXIdm_18TVZZE76" name="Page-1">
    <mxGraphModel dx="2132" dy="1250" grid="1" gridSize="10" guides="1" tooltips="1" connect="1" arrows="1" fold="1" page="1" pageScale="1" pageWidth="850" pageHeight="1100" math="0" shadow="0">
      <root>
        <mxCell id="0" />
        <mxCell id="1" parent="0" />
        <mxCell id="1hTfNBWOg6Z33aZirMSY-10" style="edgeStyle=orthogonalEdgeStyle;rounded=0;orthogonalLoop=1;jettySize=auto;html=1;exitX=1;exitY=0.5;exitDx=0;exitDy=0;entryX=0.5;entryY=1;entryDx=0;entryDy=0;" parent="1" source="1hTfNBWOg6Z33aZirMSY-1" target="1hTfNBWOg6Z33aZirMSY-4" edge="1">
          <mxGeometry relative="1" as="geometry" />
        </mxCell>
        <mxCell id="1hTfNBWOg6Z33aZirMSY-1" value="Server" style="rounded=1;whiteSpace=wrap;html=1;strokeColor=#10739e;fillColor=#b1ddf0;" parent="1" vertex="1">
          <mxGeometry x="250" y="350" width="90" height="60" as="geometry" />
        </mxCell>
        <mxCell id="1hTfNBWOg6Z33aZirMSY-3" style="edgeStyle=orthogonalEdgeStyle;rounded=0;orthogonalLoop=1;jettySize=auto;html=1;exitX=1;exitY=0.5;exitDx=0;exitDy=0;entryX=0;entryY=0.5;entryDx=0;entryDy=0;" parent="1" source="1hTfNBWOg6Z33aZirMSY-2" target="1hTfNBWOg6Z33aZirMSY-1" edge="1">
          <mxGeometry relative="1" as="geometry" />
        </mxCell>
        <mxCell id="1hTfNBWOg6Z33aZirMSY-2" value="" style="shape=image;verticalLabelPosition=bottom;labelBackgroundColor=default;verticalAlign=top;aspect=fixed;imageAspect=0;image=data:image/png,iVBORw0KGgoAAAANSUhEUgAAAfQAAACdCAYAAABCWoqsAAAAAXNSR0IArs4c6QAAQABJREFUeAHtXQd8HMXVf3On4m5ssA0GbNN7J8CHZUmu4FDcYmqoCQQIJUA6hJgAIYQSAoRQEiCElhg3SsDGRZJNDcWmhGZsOtgGd1u2dHf7/d/uvbu51ZXdvTvpJM/8dJrZN++9mXlb/tNHUTtx1qitf08buv0S2VVEFv7wYxf3EoEEPRGR5BUBjhI+USDsNh0Xcq2nZcvHZZkPOUnh43jRK75DsygauVq9t+lqvjTOWMBYwFjAWMBYoNAWYEgqeWeN3vp0Wtf1AYCnk18bbBOI64CoAKiQbbDFhdC5lIkw03Ft8wg9LpjgETp8dpnoAvhx8QRfSvq4sKDAip6i3m18zFFo/hsLGAsYCxgLGAsUzgIMOyXtrNF9B9PGTvUUVWEbLBNAjIANooKk8WIw8LrBV9mA2pJugzHkBHzFEm75BD3mpGnzg2jzcfpx/Sl0FuK8ONE2bzQWpZh1pPqg8RWONc5YwFjAWMBYwFigUBZgCCpZZx3XfwCtC31AzeHKZCbjIGkTJCw+iAyyNrAyjcNxsBUFCbAWGc1nHokH2UFjjcYkAemUsOjgaIQT6eNawjY//kVjmwDquwLUvxCS8Y0FjAWMBYwFjAXytUAoXwXFkrcm7tCZ1tNCipRV2qBoJ2SjLELs62FcMnAyzfb5GgH+iWOgTYA1h+MR4uu8HKWJpuhJjQAjK9DSEjk7fVYUd5J+SHUC+0Jr1121SoowGd9YwFjAWMBYwFggmAVKFtDp28hb1FzRyy5WHDNt4LTDgpqIdQMxCzCPgDdfs9MBVpeRsC0T52N+XZ7DCT4JxwVsugizj7zZl/xPc8wnOsKhbSj0+UIt1gSNBYwFjAWMBYwF8rJASQK6NarfXGruvEuiZIzfNj7iH4OiHXYBp9BYiPmdfxxIOpsnfmnzMAE/CbMvQC7gy5F2mnHhRBj0uLitwI5mmuhjZS4nuplcFt7T2qPyWReHuTQWMBYwFjAWMBYIZIGSA3RrVN+7qLHL0CQwakDK4JoAxTjdRmMBT6GxLeLhBL/Yh+n46awSlfA5Hb6Ip2eDdDyNFvoSQk5AsiIJpPBrOpgeCo2ydqu81aXBXBoLGAsYCxgLGAv4tkBJAbr13T6XUGPXc+1S6C1xAVaOSAAmAokwwJHDIsNgzGF24jPA2mGbEWE70mZxKglxfpsS12fLxHWkALMjltDNcXG1No5z+onMxSOYJklwPpy8KAqHLkZL/by4RuMZCxgLGAsYCxgLBLKAQEwg4UIKWaP7jKaNXZ+imHIqGTqApg0DIQUk2U/w8EX82gZaFFGPs8NC0xQIT8K3ldiqkvJxvTYVsvGknEstXbYq62GShG2mOJ3Dko4dphhZsZHq/U1z+dI4YwFjAWMBYwFjAb8WYLhpc2eN2XZvWtNpIcVC5XZmbLCLo6ENjAh7AkaWibsUwIzT09EYdRNiGh8HJU2W4xZ1DOvQ2XHY1gW6LWL/S+qROEdBnBdy6dJP0Kwmarb2UR9tXmynYf4ZCxgLGAsYCxgL+LAAQ1abOuuYAb2oMfYpRSq6JTIiIJcARsTEMdPmsRhYBVSZ4gZWjVl0OYKOHqZxySVOfJsH/2KueKbrPBJ2+yIv+bPzpefFVuTosisFejnAZ1lribrvoN7/Zp2oMr6xgLGAsYCxgLGAFwu06Ri6NXFimDZH36JoJcA8XrcQkOTcO+PMHNDKwgBpo7HjSZTtywWz62G+Frl4lI2zzKP/mA0RImqnD1paZyuIi0NAZOz8y4UI4lpLPtnC1/kQVqoHxda9jV1i9QhRYnxjAWMBYwFjAWOBjBZoU0CnNQtepuZO2zutXyCegLnAmVwnQJZ5UBaJ52JxHNP45/xjYHTCtpwww7f1uRQkaHE9CYBnFbZSxxdwFxrzMY1ZmGaz4h8nxz8mME3ywrSELMfHnU5j/pAaQLtXPi/RxjcWMBYwFjAWMBbwYgEberwwZuOxjt+jO9GaoykaGkKW2gdA1gVI5oyHU+xbANlyUtbbFKZ56qmv7X3MraP6/Ys2dTvB1stA5iCik4yAnPgSx3xME3C05dLIJuQcdUkghYDI2DzxC6FxpB0WOvt2Yk66dlKgMYm75RNOC7PexGU8IPmxL1001iHxiTB4YrF/qA+bz7RJu5YfAaZapLkPhagfMtAb0+jgWc34vwGBd6CjnjZsM1MtW4Zr44wFjAWMBYwFtjQL5AXo1rHbnUexip+glb07Zqen6hKQYt/GRPiMZSHMLAs1raJIZW+AkCOj88odEFrKNSuAi3s2EOq6ExHMI7zwU3g0BTYPIm0ffLYI/2NafAIcs7MTHjtsUxxaim5bgROpp+9kIK4jLsuJCXsKb0I3TmezVkKUd8sL2ekLvwiyHJtdJuuxRst6D0vhblaLo3+XlIxvLGAsYCxgLNDxLcBw5NtZY7cdRJs6vUDRLts5QKepaAFODFwJJHIY+TodjWOFLr5Oc6SZSeMTYjwNkRO/hTzLsoo4fwIc43psepzHJnFYeDUeptlgHqcl9MR5dZmUMPPrOoVf022zxOl2OD55LpEGqwDN7vIXPtGTuP6cNtGR6kv6LK7ZeMYCxgLGAsYCHdgCvgHd+l6nIbSp51NE4R7oXodp8GM/GkZLsczx2WAcxdiSADNcCNYkA058gkfnlzALcRq2MoThbD0JZak6hGynj4u0upkOPSl5jAum5ec04/F2+lqYFXGckIQvJf14QhInPutiZ1/HFSTiIJOWLvy2ZJwnTrNVSEZs2moMcxyjPqIX4tzGMxYwFjAWMBbooBZgpPHsrIl0GEDwOYBXj8xCUBmtIOzFThTBj30GesaZBEBpYMV0zkUCyDKFwcg8Oj+HE0jKYTibx45IXktLtkUaLn2OhKMjbRit4kT68bSEwLrtcgidFbj0t0g/zityLGLLcCJxJzJMssMI2KMB/E/C8FN0IEquFTGoD1eL6fW4RuMZCxgLGAsYC3RAC/Bn35OzTqKDKEpzwbyVJwGdiYG9sSdRE1anxQRpwJAAK0aruBOagCGTEzT7wsYxhxtytqj4cV47CabhJ2DuCGi6REbzbfW4tv3EP00mTouz2InbYdGBeDvNuM9xkhcWZaeXRcK2H1ca9xw+jcbj5Pxzj+1r5kyAuJOS/v9bjMIPVUvoLZ1owsYCxgLGAsYCHccCDAc5nXUi7QvgnIffNjmZszFY6JbfiDleG1En0IFLcsHAJiDHehJhptsER3uCrvO4wjZ7PJGMejUZAV4vulN4uKUcL4BNj6fpN33m50Jq4nb5o1H0eODHEXYeERSfRdxOj0sNL6dyqlEf0HtuEXNtLGAsYCxgLND+LcCf/KwO3ex7AEDqgSdYLlUgF+lEtLYPuuTRNc/OBkJkRZ/olQKaGpgx3QYqDfmEN+HbSm3V9j+h64CZoEn6cV90u+Olpc90O8xAHnfCa/tcDs5bmvwxewpvGnlJPwr5WMRpldu0OK/u6fR0YaGJT/QllVE1ut8/0tWYsLGAsYCxgLFA+7cAf+ozOoD5TohswG+HjEyBI5D0ur7oio/v+JoN6BJAzCAJuRTeOHAm8FO/lrDLt/MMmujhawmLn6CxibzyxvXERWy5hJ54HF+L47T4l+BHBF/H0CJvBpjrlQKWET7xmcZOrsXPRiP6BN3vQzBRzsx+t41n/hkLGAsYC3QMCzAEpHUYM++PMfP5iNw5LUNBiEh+LRr+m7o6QMY6BVATQAeAsx14mSbxCZCPR9t04QVN+MRnNp3HZsW/CgwDdEOlohOP82NPlrXrAaY8Vh3XJTJ6Cz2eZIInodsOOLEp8nEBSVPibMCOo7DQIkg7gv1iFJjjWbCl42xxTY6XjiYM7ji5Zp/oQ/yGqKW0zL4y/4wFjAWMBYwF2r0FnM+7qxjWyRgrj6JlbtFerqjCX1rYfXYlOgAimAnPToAtY1gHOglryCc7uNkAFqfbOjkMYicA+J57E40cRzR8AlEvdP273bfAuWenEM3E7/13nNay5Et8keFr/oklJX07nuPijMKjy9thF8/mzRAQIQTtcsR1pAu7acyqiWeUD2GCXFeMqb9Fq+LajWcsYCxgLGAs0I4tIDCUKIJ1KpakNdmz2Q9JEIsZCAFgf3Av0RdfEr3zGjqElxB9i0PHmjRUagGCnKE4EAqgJXjicnzNP25Zd0Kl4eDvEJ32E6KDqv2X5oW5RH+/mejNVwHuvNsqu3j6zoWTlk3mNDk6Hi/hdHxc9l5bEw3aDfn7P6J+2xNdeT5k0UqXcomc7meLYz6OZ4csJJwuI2FFL2OT3hHYOBbdEsYZCxgLGAsYC7RnC8in3y4Dxsw7AwyeBRAEQL2AZvj+jUTH/7Sl8NefEr34DNFbLxItfp9o+QrsWt4EkIpnWQBcfNaghyvBt/9+RCdcQFR1bEv9QSnPTiV66E6i/y10xrpt0IwjpwConQ++iCMnX1diIuA22xLtsQ/RIVVEI44n2n5Ay1zccR3RzVc69Lh4CpNOyxQWAYkXn+kcZifZI5pjbz6zmLhrwDhjAWMBYwFjgXZqAfm8kzUJ85/foekoxzGtVpYjTyT6yWPek+Ox5YXziRbh9/6bRJ8D9L9dibFvAH0IRendnWjvA4iOO5Po8FHe9QblnPc00b/vQ8/CGxh7XwOQRMu6shIr9dHq3nEn5OVgoiNq8KvFxnpojXtxDP7nYShg1rQkN98lBuBMTuLdvvALXa7dfoim0SE0UU3GQItxxgLGAsYCxgLt0gL8qbcd1pqPxg5k/5Hrovs7oKX6+5fRHd616Em1uwTWYchh7GFES9EzoQO53C03Tb/mwgqAu/n1azePQtf7ErTWjTMWMBYwFjAWaJcWwOBy3PWk2Qgtl8ui+p17EP10qgHzTEbuDvvc5bKPALAO3kJjPQLWOo15hV/ocs1+kvYlWuh1oBhnLGAsYCxgLNBOLSAwYGffOoFuAAD8vOhluXwKusTHFz2Zdp/AkxiOuOTkJChLgQSI5Zr9TDSOExAXnpb+NWopXcWspeKqjjmlV9mGjQP1/ETD4VinUPk3gwfv+fWkSZMwvmGcsYCxgLGAsYBYgD/tCYdJcbvi4gP8UugJhkIEjr2c6PSbCqFpy9Dx24uIHryjJWALKKezQro4Ny15HcPd3hmA/kk6VW1Fq6oZe7JlWY+kS1+RWoE8P14RLr9u7tzJX6TjMTRjAWMBY4EtzQLJLneUHJOiFsObWzQj7H4k0al/KJr6Dqn4ipsxWx9L7qSVzYVMgrET5mv+iZPudL7W6RKvy4doZqmBuWQzk2+R1Qdgf35TtOn9wdXjTFdPJkMZurGAscAWZYEUQLdLruieoligW29nRns4voFMURLpgEorKoju+BdRdxxoI+CsgzuH5cfFZx4dsIWXfV1ewjG6m8Xao8OCAMyotCZX1Y4r4LrE9mgJk2djAWMBYwEs9mphBMteulbgyXFAjx//A+uwd2yRnCF4sAAvgfvj3x3gFiBmX8KsQsIC7nKt8+mg7sh8SYMIa+/as8NWg7HYg7W1Y1HjMc5YwFjAWGDLtUALQEe3exPA4YGCmuQ4jJsfYhpRedn0aPQsn3lxsuvdDdxusOZrdpn4nPj7VB1FHMb2+x9F6dVsESYbGGcsYCxgLLDlWqAFoNumsOhe+AIJ+VlnV6ynPuX6/HQYaccCv7oRm9UclGyNM1W/SxyWljnH6WF3HPa5A8ffmK0jOBQVu/EYZyxgLGAssOVaID2gb2sfrbkhb7N06kZ08cPYJc2Mm+dtS1bA4+m3YeJ3ZRdHnQ7YEm4J3Elg18Efe9vRQOowM8Qxnr4XJsqJFQpibqPEWMBYwFigPVkgPaAvp6NRCKBxnu6s24i25ZVwxhXMArvsSfSbWxx1AtAMYzqQS1j3WSIV7rZCtW2Eo6gj/Lcqvvvd73fvCCUxZTAWMBYwFghigfSAbtFJQZSlyBwxkWjoWSkkc1EgC5zyIxz/OiYJ0ALs4uvJCE0HfaHFCnCf9bTaONzYuCH989zG+TLJGwsYCxgLtIYFWvSFW+fiQM3VdFxeiffegehcn6uhNuJwk5XoAZbf6q+JVuNc8nXf4JS11TgvvSn540NQuvTEVKj+RIMOwLhyDdFA+HxUals5PlSFD2l5pcE5iW0F8r8W+eZDWcrQVc7d5RU4uKUHJmPz4S19+uG3HY5MRRm2g7346FTe8tWr+wOGv4/CXvjfIh0BaCk+X+s0uRZQ5zQc3nHWrvQjZU5a82p1w2csYCxgLFCyFmgB6LTKBvP8TkxhMO/WK3ehV3yCNdanE328ECemrc3Nn41jKxxNuv9IogNHEx0wCuAI0Cy2W4nKRsNMojoc87rgOYCrttpPB0+v+eiOSgpPerv1IQxVAOCzud7bEF33V6IfjUty6SDOVAFyDuv5SYZ7gAcGs5cqMpdxxgLGAsYCxgLt1AItAV2hG1aAIUihqgHQB3/Xm2SfgUQnXkP03F1EL+Mwkshmb3LpuLhF3/BP56fQ88qz6w8+lugwAN6Oe6eTCEZ7/22imdOwn95TRG++CtDkyeJpXCYbJsE0FWT5vPRhyO/3z88N5pLcqLFEx+II2qf+lapL0pa0xGc5DovjsNPtPl1IxjcWMBYwFjAWaJ8W0D/vZJ1KPbAKnZuZ6BsO4LiVfMs7aJ1jVzi/bv1KgDFapvPuI/pkkV/p9PyMtfwbgO7472KZ8sizAWgpRU4v56bGoGQyurh5T/V330p2Z7v5Ml1zkgKybh5ukZ/4A6IxpxD17OWOzX397QqiUaiwcG+BpCO+SLuvhe74G3HX+6o3Kf9VDal687rKtpd7JsXlIdWrrm766kzxhm4sYCxgLNCRLZA6iaiZ0JwNCOZspR/8JRiYsyxXAr57MdGN6H7/A1q+R/2YqGsAgGNd4hjI2C1dRHT7DwHKNzjXfv//9VqiqzAR7QOAuegUHe5rprtpbjDvibKegQrG0xhzf/p1HFaDsgYBc05r6z5Ek27nUMtKA+eDf5K+XDOv5FFhzsSGPOdMsD7jjAWMBYwFjAXa1AKpgJ7P7HYeuy7Ukag7H4LKAVrDd3+J40MfdcbGuRvdr3MDWcNjfjU4/M9ATgBQdIom9zXT09FCyH/10ahYoHv8ZZRr0m0YLz9QtOTnH4dFCYOHOzp0AOd8SF6ELtfsC62DzXbPz5hG2ljAWMBYoH1aIDGGbp1OW1NjwHXJ4XJsS3pr4S1QgXHlwQxW+H3zKSafPeD8li/1lpaAMHMLkHmTTOXiGexB5QfsQjTxLOxjdoYzmz1Vc+GufosKwtH7Y4ghmtQp5ee8808AXPwk59HWztRTLaE1SZIJGQsYCxgLGAu0Jwskm72N9taZCYD3VYihZxP1392XiG/mbQYQfe8qtHA/Qvf3XLR2T8cysC7Z1QgIC5j12zk7f6bYHQHKAoICkpl4md6lGwD8TKLH6lEB+ZDowiuKC+ac5m4YRx93GodSexPEBpJ/jhd7SJyFYRZlD7dwrHHGAsYCxgLGAu3QAklA59ntQRx3hY/7VRDJYDI8qW3foQDJfxDd8xXGn2/Beu5B2XUJmO20X3a+TLG7Q05AMBMP07k1ftWfsRYd+brpfgxBVANcOfFWclxx4JqHntd0yYs9OFsc5p/pdmdrGGcsYCxgLNBuLWADuvV92g4lqAlUCl7zzcvP2sJ16YFlW5ei1b6Y6LLJWO61W/pcMMCx2zngmPUemCUvTnTJNfs770F011TM0P+A6KyLMZkPLfS2cIN2Jfq/WgegJZ+6L+DOND3s5HW4tTtt0xbZNmkaCxgLGAsYC+RvAaeFvpkGo1WXbK370bv7//nhLg5vKEx0xPewZO5tomMA8G4n4BUU0PfSKgKiS/wf/ZzoWcx+P2ocTpcPZkJ3dvO6PvjIli10yasO5JyITsd+dtRMJXAz8yq9ETYWMBYwFthiLeCMmZfTf/Exb/+Ot1g9A13wvNzt3xhvF8dAxlvFbruTUPz5gzA/oDPG6zdsdMCSpVnnL7AM7jwAeik5nsDHLu4lfAZvpvFPwgimhDsR1guWiGvjk9MmTZoUqqtbOCAaor6xqOoJk22FTYTKVVhtRtY2YyRlXdiyPsHWhJ/X1U2KlIjVWj0btbVndorQmkPxWO0Ssqxd8Pj1xzPVGRnpAloFnrdGpawNoG9UodAa2PBTFQp/4tiu5+K6ugc2FTvTdh7DawaEI2r7KMV2wDDY9ipm9bNIdSYVQ15VJ4usTopUOfxm3Osm0JqR942grQLPKlyvQtznqqzsk0oV+mT27Mlrip1vo79tLDB69EWVjY1f7tRsRXdCE20QTnEcgGemB57nLng2uuI5qMRzgWfaWsPPtO0rtRZ7jH1VHip7s7Z2nyX4fsTaIvc2oKtH6BNrIi1BBnb2nQnee73U3IQrsRXrI0RfvJfM2U5at3mS6i3ELe/dMI6+8OUkAO65f+mBOZdmmXY/8PTZAM50N5AzjR3T2Vn0rnqXMPhfIg4oQFI5aYUsDR06cY9IrHlYzMLQk6J9Zs97YzckX2lvTATjJMwU5ZBzzW+sUgujVdVjPyFlvUKWeonCtGD+3GmvK85/GzkGMD9Jd+7c3Xrmmds3e5WprR27Fer/Z6oYHRuxVg2Gnez0El8wV8nlNlq8QROcFQWswle06lR4eFEL57gi9lzdm9gmMnaEsqyDkMpByONeVjOVJWpdyJCTRfy3A3IlPudHwvDtYPy6OYLFQES45ytQgIXKUotwaO8rqktZ3fxnJmOXp+Bu4sSJ4RUrupZn1jAo0tErj3wE8siRJ/SIRMrS2qFz51DTM888vDazjfzHDB9+cr+maONIPJSHx5R1xNoNnwEsLDv95DMtz4OjP/EEyTMdf8ibY02Eb8eGqpoxvGnJm5ayXg9X0H8aZs34zH/O/EskZ7UrmoMH1z+gvzvff6rFluCJaAce5QA63wcGtqDd7ZJX7nZ/A4Du3FfMOMCa8lJz/FC9+rxTXskn51GAXacJnX2mh2guB7ckVzV83O4UjZ2Ob8j3m6JNAxNlhz3cpkrEuQL4AGG8B++N/e5YJxFWDVbVjv1icM3YqWVkTa6vn9HqL0hzbBVjjmcX2bDqf2DeJ5fAyJEn9d+4ufE3zTEscnVa4N4NlUt5HvGjRp3WdVPT2mNjljoGH9PRuBf2XBDnHnq9k/4ygA96H6QzEv5IflisDU0Wdjd8E+EnVXn5o/PnTGab+nLLl0cPRuXjlcxCqwhprEea76HCWE9l4TsXzJ6yJDN/+4iprh6zX0ypC1GumqqacbvBmmhBoZMkjYtuDHGX6I1ponyRhg0bP7ApEsM4rTVuU3Mjhho5TTj7ccnvmcFnuCs0HQFlR7C+6Cay8D14FfdsKir8UxfMmYbJVsVxOqDPReLn+E7mi3cBdM8QHTTat2hRBXhcne8LgxlXs3bSxsGDJMyAzrrEsf5Sc8/NwLa5mCDITkBcfJ1mM+CfPLfMwxW6LcQNGTp2OLrHrrSaY7VOkcUQBTKARdvDuBehRXgRXuS3Q6Ru26pHn4effPKejQVKoVXV1NZOKotYiy4GmE9Cwt1bNfEsiTkVMuuCjZvXnYmPKMbUCnwfs6SdJgodAhZ3Ax5gNTddiRb866RC1y6onzotDW9aUn391P8Orh6LirU1LC0DiEiDZ9weCv9Q1Rz9Cfgfx5bH19bVTcMEovblqoZOOJxikUno9Do62RuX+R7iM7WqV89edwUtJWymqmrHjwAgXLg5EjsW1nRAvPjPjUL5voP0vwMsuh6VskVoc960bZ/yRydPnowmQOFcvEBQGKJ5gdX+6yocrFJig/CfuyrIhWihs4EY/Ngtdul3qG33fzN6TG+d1DJ9eT8E2MVnTimLhcesC9W1FO5YlJqaMUOqqscsiEWt2Xi5aluldJa1b8yK3bNy7bIl6Ia7gMGxVdItUCLDhk3cPmK9Md+yYjdDZUmAeXX1hN0AZNNRIXvPilmX4F4CzEvLobV5sGVFp6JC98rgmnEjveYuXEY3eOVFubnVciJ6TF4ZUjt2rFe5UuADqJ2GoZcGVMQ8d3WihXvHE0/cty5I/ocMHTcGNnoLczhmAb+PT4J5EG35yeC+HRCLWf/8alnzB7DDuRhqqchPY1I6AejqUVqGD3ywWt4SzKW623/jPpmNAoc24ZwRfSgghG/oAGy8ko/jtegK5hKAfBH1n81Fn8/jLcfc1f6zs4jeW6SDtCObBG0nTvIvwO7EL1Rv4eDcDupqa0/eBh/W+yMWNaD4g9ukmBb1w236S8Ra+D/uIWiTPPhMtHrY+OrN0abXkG90H7a9Gz361B5DqsfdGKUovlPWGORInu62z1ymHHCrDCCCFnvdkOETMPEmu2uYO30WT8zIzuWOtTpjKHfK4NqxF7pjSvEa7+JvAGoP4h56BjK0aDeEVWdsh+nPDa4df4RTiY9Nx3Occ1jJn/b8uFHp2xl2uPvL5U1LkMdT8tPmSCcAPa4M3T0BXf0/iB7i4Y0ScC9PAdhqh4ftuBdReWV+GeuCYZGBuyZ1rMe8jFno4i4Fd82lRE8+6lQ2GLD5MyefOjeAc345TujOdYftbseY3MRmq/E9dHmdyUVta4cXeDfszjsLrbbrSrm1jhbwCdFIbDaek35tbTNOv2rouAPWbdjwRoxiP/UDBKWQd84Djw9bkcjLAN0f5MpTSCnPrfSkLnQfx6zbq2onoEu5dB16qY7Du/g7vznE5MN76+oe/carHE8MxVyWmygWe77NKvFeM4shOuTxYbTWpwwZPRGnbQV3qYCu8pwY9QTmKjzy6+C5KZTkU1i6xk5ALZ8Z7o4m5797HP3v8XR0ntYOX4fv2/1/TpaV02ew5p+UXwdwoTGf0DvghDh+oQdXj/kruor/jQ/I1lzc0nH4+FqxX0diC+urRkwcUDr5cnKCStBZCHENsbwU8oau0u9bUetFbtGUQn6C5gEtxE4A3b/Bvpdl07Ftn7LJeDWXZuPJFIdu/rv42c8U35Z07mHBR+dO/3lQTeFQiId8PDkMyWBlw+rXMRxzOZ7hVIzzpKFtmFDZH29taH6nqmb8uKA5SC1szB5HzW+Qfvr1RNMDVDCDlsAt9/LU5HnqDGrsBh3g+Pn+3wt6RCfrWoQJqXOfzldrcPnbriH6G55zAWb22Ymv59WJcfIvdPYVdiDoSvMluiP4VSMm7ByJrXoZZTmvlMsDgDqSmpoWltL455CaseejEvT3UvkQ8rwDHm9EfjqX8r30kzeejzBk6PhjMsnYE6UwaSpTfFY69gKI0Kors/K0UeT6DRuuA2jt4Dd5fM7+WVc39XMvcoOrx42PUmQB0tnLC3+p8eCb0MeZezHmj0HylgLoajJO21L0ehBFKTKP/JJozt9SSK1yEY2gXaH1EAiwFaqFvsf+SbCUAv0RZY2vRRRSq/j/REX3T5iMyGXUAVpPnOP0eLlmHg6z4zW0b+JE9A7iqoeNOZKaIy/DJLhZpe+Qz14ArGm5Wm2tURIex4tZ1l+QljwdrZFsxjTslrlFd2RkaMcRmBB2e7aW9HZ9K+7H5iUrAhXRUpeMGDGxZyDZIgmNGjWuL9Zk/9C/ehULUdhTCxFj87/Cx/hxpNHFfzolJmHRz1CZvYf3VfCTs7I0zDyO/p00dH+ke9E44h3bjpjgTy4f7nn3EX35flKDAN2gAn3beTMZ0SmpvI/5OVMfxElwZwql+P6TjxH99qKWYM150wFcz6tO5xwKL6pexc9w66SA5S8nW1H6E7o285ww0Tr51VPhVhvGV9c8XzcdrePWd9xitGLRf+C5KA0wHzquBhvR3A9LFCg/aiV0LcR+P2+jjF9aodDX4ZD1lYqqdTHs/oc17JvDUV78HCuzyrCDnEWdscoJfrQPXpVByMQg0HZBbg5H669bvncIOneKWqu59YFaeUuHVnojxoBvw/oTdMP5c5y/zc2RsyH1J3+SxePe2GRdYA85+EwCk+Eeb6if8mEuscE1Y67G0FpaW+aSTRePdLF6XL2O1V8vYs3Ze7FYaGWZUquiIWslHpANEdXc04qp3kizF56pbfCYcjfw/zkT7wrTzQ9d5zw3d2GPc88997R77rnH0zKyFi8LdozjJRaz0hXSN423Yv3Vf4j2G+5b1LfApvVEF+9GtPrrpCiDVre+GGNelqTlGzoAlZS1q1O1bIteJD6YpVMr9ArWP0t0zvFEza77y3eSy6s7ubtCF55Uv1Z9TPW6WCmEMUHkZHyYHmntvMA0S7Hz11toHS2GPT/Fq7ke68g3xIgqQxa2gaVYn5Cl0NogPFjWQXjpti1cHhX211AnLaifNjkfnZg7IHfckxqkie0rsU1rK3drw9anLmiY0eIeH3/82d2/XbMSS4ysgZ4KkIYJZUL9zmpQKjQlVFGGnbomL03D5ptkr8lXbx2iYpHhsNkPYeidfCuJCwA0NpepikF1dZO1j1ZS21FHTey9YVPTp0ina5LqMaTURyOHHrh7W21BqueSt1LF7muf4vnCO+PPYY39QXV107PO+q+qHfdLVP4w1puf4x4R9CI8EAqrx/fate8bXkFUT9V5dlcdgUrAaSjvRNy7Tnp8kDCe5anz66Z9D37O97plC70XPY8FTKip8guep4tAzY1YHnkVGoG7HpanshziMzDkoIM5s3PxB+yXQ9Bn9J774njUBalCX3+OsexbnHPPU2MKe/XaCxgVRo8Hgzm+hikArt9qiUtH4xwx3eFpxKfiRSZtqc758NMLAO0nwyr0ZF3dlPf82IKXIsWikVGYhTsKhh2S3wtsYTt0emjI0DFr58+bMdNPPvLhRcUpz+5ZtRyP01t4ppbzDzusLMfGFiuwjSb2vOY98Am1YKsXHrtBCB+CvPbIlt+Va1beGhTM+X7is/eQVR7+3fNF2EUtvvXqy8j/ywDLP8ye9yZqT9Hfo1x7ZitTujjc68oIRU5AXNrlWDNnTl45pHrsvaiY/CSdfFYaxtLnzn3zWPA8kZWvFSLXNn72fdx/32COe/lMLjDHsMyZsTzBHOlgzJ1u365f+XT0jDD20fy5wQwTXyf/HKSfqzrmlEvU+sbTcP8uxvO8SzCNsBwmy6EH7ReQ/0MuHfxZb+GsE9Bis6i6RURQQretiX43n2iHvYJqyC7H+8lfvDt2C9yYyodmFY2+mOgHf06l53N15XlYYHB3Sw1du6OV/iGOki3SKp/33iI6AbdkHXoH+K4JWOt3UGicO+Fx+6lxs9VSu0eGqSXlit1Cx0u8GrXx67pVVtzHH85CFH748HFbb4rQZZjBjvGQvDZh2ajCZcMWzJvCwOHb+W2h+00ALUss6VcvohIzk8LWs372rsfHSQ0d+r09sJb8UByQsqihYQYe7KTjTWMQh0pVgG5LpT4OhUMT5s+d+npSY/FDxx13bpdVa5ffjrJxN7c/p2je8/UzhmUSqh41ZsfoJvUR7OF7xQFanHMWNEwfkUl3a9Exts29LWgJ+XNliqqzbZ2MMwUOjFhY/RC0FaxoGSp/l6XrJfKX0+zc3EOxrvGzX8EGv+RKXHbu9LF2RTWkhs+fN60+PYdDDWWIDFg/yaBt/bdE16IB8w16XYrhHscwkxvMJZ0d95FQYfzdMujbsI7oL9cVJg23lk+XEJ1+FNF6gDk7Hbg5LD+OYwAXEOdr4WWf6ewkvAVt9+oUnP+rJrTGb+3aqXyX5+tm3FQoMGfNc+ZM+/b5+mlXdCoP7YS1xNfjJcQ4UCDXBePZjznLfALJF0WIgRy/e8tUeKfn66dXL2iYdt2CedNfQznlKcuZLvNyL8j8uukPucGchTFDGUu6/IM5wOuVTmXq0NYGc84zb+m7oH76D5AH3/MfIPOdbBOf+FAPmOxRTsevQ8tw+OChEzJ8sPxqC8aP3qajgoA5npMFOcB8q0jMmhoUzKH/nnKl9iw2mLPV+OCjBXXTJ1FZaH9sGoSWrX+HymIYwwqP1dZOzDrElx7Qi7EueSW6pa8ZifHnFf5Lk01ixSdoGd+XmaM/Wu6FdDvF9Qk46rofvQennX2pU/IPr/ia6DTYbcVXSSBmrZy+ngcJ86dVANvNp9M5zspz3wHW0Y4cwGi2qgjvNb9h+qWFBHK3CRjY59dP/3Wosnx/fDgWueM9XVvWoHUb19/uibfoTDhXTamHKsL4ANbPONfrEiK/2eJT3PBQn+FXDjb+vCxUPobt7le2kPzdu+74Y7yGb/rRiQ91tznz38naXV+mQjdCJ7+9vp2KRdFF2XbOiqpLg6SOwv4+mxy6iG4Az07ZeNLH4VkOqYtQAfsRuvPjLaT0nIWm8qEs++zRdzie10eC6EblZduI1cyrUDK69IDeg14CWBR+KdNXHxBddzTRxrUZM+Q74pnbUK13TRDTlfQZqF/lH94+rg9PUwvXtJnoH3e0IAcm8OQ7bplzC12cpMs+/3QglzDz5uZbQ4fSa8y6RTilHihTB41uzdOpeCJWrx59j8QLHKyFZdHpOInqu215f5D31dhffDRa5KfNnTsdXb/Fc1FFw/Hg+p5Zih2Zz8w0sax4uW2p2T6CVqmbWsZkp6jmpkHZOPjgFdyHp7PxZIpDheH7GMvFHIbWd0OGT9wbvQSjfKeMrW/xvD2TSY6XpqJc52SKz0RHhX4z7HgSVpIU8COdKbX0dJ5ohwlu38d3O9AKBJR7fE3N+Iyr0NICuroHm43gRPH0WcqTuhTDW388Hl3km/JUFBevfzCzHga43v0zxweJ6ZtD35R/BNHaUqYR8wHOPgb7s2sVfgFs8VlKgFvCepwe1sHfSa0e+w5EnWDH/o9uzWvxgTirLc6SjnfHnhJS9rGPvg0NkLu5rbaIhd0+oDJ1uL2/uO+c+xfAoTn+x3sxBj1/3vQ5/lMrjsR2fcsfh2aMv3l3WNqAZTI5XKDtYG2dXdT6jb7BL0duPEXHIhFunetfIU9y+KZdn4mRhydiUXWXf71YQRIKT8h3BUmmfPmho1JhYd7EZSqkbvYjJ7yYY5Kx9yItoMcFCzuOLrlh/3/1OBnsRLSssRFMPm71Mrw63+SjoXCy8tgu/7Llsja/qfAs9vO/R/T6C46k6BbwFl/ozCXhlsCdGid52UK621Er/zEmBv1Git1W/vz6aTeGKOS79YaP2544uvSC1s43wHxOWYgOL+bZzS3KpMgvoFtYYvTLFnrakMDrx/HBRlekd4dXdutc3Avqpi3AsMeLufjSxceILsCJXuF0ccWi8Z7kimKY3e7PwXYfjhx2IFeK0rq5dW9gKZi1X9rILER8Hn83f97UQL0cWdTmFbVdn/Jf4D2r96sEXe8jqoeNG5ZOLjOgF2McXc/Bq08Q3fVDtDAFnfRIj+EuPYg645fJseqXpmWKDUaflUGfFKNnb+SpazDdLMW7zl1+BlE9epxEp/gC2uLrdA7rdA4LTefjNNgV+/46qbTtf3SzY8z3zrbNRDL14cMO+AUqGM8mKV5DsV8V8ojFnKmiy7NLp+5jWnOMkddc43ndNWfeNAZ8/B+aP3f6KxqpVIKf+cuI1ckLf9gK/cELXwserOf/+pvmsS3oRSRgT/JAG8lgf4cbMq2dB5ArfB5/7TvbSv0HFerf+ZYrsgBv8Yu5Hyfhm/C136RwcNJv08lkBvQ97S1giztpgE9oe/DydPnyRqvAcNvFDxOVVWbm/8vZRPdcTPQavqMb1mTmyxbDY9kNANhJFxJd+aMkpwCoUCrwXv75EZzsVi4U//4k5JVPTnPrFoBmjW6Almvx9VSFJvKO3hX0UcCjcnXdpRzGxhrlqvyiUsoif6iw29TJdle2j4zxZJivlkdO9SESmBV5+6pchY6bNeufhZ9DkyVXmzY17ZMlumWUUm93qVQ/bRlREhQesvTsYHNPgF5fP+VJVGLe9axYY8RwBj4sreN4mRaWhJ7vOzVFX/TvU/7PTHL2boY+t3TG525Vt07lp8Fu8iXMpL5N6Dz3AxtW/SBA4tXVoybu5JbLCOhqEjYdVFTnFij49dOYGzD1uuBqDzkWQIts9t4+vY6mRqKnMVl40miiE9F6Pm9/dPcDlGc+QPQRxqcjrm7/CN7FDxbhgJn7iK4+l2gsencOh9w5mJv08F9wLCsmvonTH5HtdiSaPJ+o5iiJ9e/fchWOIUAa7ES3A8DJ1rYT6wA+80g80zks15nkHfo81AqFgyU7lEPZIqEwnYKXZX2pFYxbvaGy0Dl+84XJRZf5lQnCr8KhicWaxZ4tP1ErtFu2eD0OH+cF+EjXzJo1bblOL5kwbxHrxykKe2FnUMKz/UcvvGl4qvkI2jT0gpPWbfj8VHxd+vlWjAmFsrFLWlnLOistPQsROwVeX8wVLVmS9hyF5Zv/CdL1HtsUOcWdSJmbkHLNx6laVPyumseuxHb6PYmORgs4iNv9COxIBxC+GwD8ytTMGix0Z3/8FtES/J68B93bYA1XEm2Hnr7uWxOt/AYntS3GhL0mJ46njDFPLnfMCZi9fxdRz165ODPH34v5Ebdfk4xnYGbI1WFXwhLH3ELTwzqoS7wuE+o4+7dzsVs4FboZm52UYlesndWGuVMbsHHOc+hCHNki75kI2JhjyLDxBxdznTUAYyrGGZ/PlIVi0oFVg7KNviFvq1GpeQMf6FswnvxUMfOSj26eUW6t27BnPjqyye61e9+H33l/2bV47zO0YLJIx2KXIBZdlkV2CjvbyXfHa1JKfdu1ovu9mdgdu25E6827wzPzeVj1RGuu9F2ozPo1ppT5fPdiDOjX6aXL2EK3mVpznPWBnxC9/4KeN39hBuSfTiH6yWPYWLKPIyvAJj5TJcw+/3ip2dJ3cBRqA8D+f5ioBzAXp/O6aXy9DSqhf0Wad/wrPzB/qR6b+v1cUnB8fiEkfT2GafKy6PF6mON1+ZYyc3WVHSnMrfPO5ZW3lXyZQmHfE/WsaOzEYpULH78oNoy5olj6c+kNq/I7y0Nle1WEK/ZU5aE9ykMVu1WWqV1VRdkuXTuF+mHdcC/eUa2Uwdwu44bGX8Dvkqu8QeN52ZOi0C0B5U+urT15m4CynsQG14wbGWTSGpT/Oeswz/qNE/FRq/CUiTgTxuMn1dU9sMmPTFvxNsyd8QI+00/7SR+f+L1ra8ftq8tkbaFj9ew72AZ2GcDBf/eJnoqXcAzN4b/+AOcDAVTxVQ7sjsQ3b9/hRFxBaHi4pRoBQ44R0OPkpCUu8exLmHnFCW3CGRhPx3u1Fbrj83E8Ce4XKDf7OvCyTklLpwstXbzwia/zJvP4GTaSRDdER3Vq2nPPPfZlqZeOt3VFK/0pfPw8tzpwO9EVRAwYBXdoHdfX1fvbx76QmYivI/+6kDpbW5e9XXHMurTY6fbu2ete7Hf/Gzw7W/lJC/e4U8TahPHG1FadHx25eDGz/bL0n52skutUty53ZOUg6+js8S1i15bTVmkAoAVf6RAU3Y1vPtYqe3fNZNWC+22RyN5Cd7harzX35XtEnyXyJnn07/dAJfTih4iu+A9a0QOSwMiaGOxyOeaRH/PqT+iOO2Gc+zmimx7IH8xZ99uvY+OYjziUTEfyKL6kr+fJkUitBAifHscyQnf0td79lHy0oo+1nX9pxeTySgr11r/7UoDd46pGTNjZl4xHZmxVW++R1bC5LMBnfeOo05sAsI/gZfPVinSp8nRpHwCi7HPrPfHrTJgnfn6x9jWorh63FyoN/icRKbprwdOPrNLzqYdhV8xoU9U6LVcY79b09tI6l7Js17diJnrK1si1Jz9GVTpfbkDncfTWdGsKOM/lIEyEuw0t/jGYTxQOO6UQcGPfAbgk4DGHACDHCy/TytCZcc7PiZ5FhaNqBHMWxn2bprySrvickp4vSVloEi++yLEv4STvHBHvaD5e4ndyHV5QSmXu1aM37oVq9pWnpljKC+xLNhtzqPSO0M2W3baO4wNZeBe/qpox923cHPvUilmXt2aeulSEbsPz7r87GWPvMXpjQjHyGlMx7p3gL41nhzJsDnUK/ymbQE3N2H2xvBljqt4ddg9E5ap9OZ4QiJrLdH+5tobo/Fm73G3GMAA9posUOdxnUGET6IQ14Wdjwlk15g/ciq7txYucR44fO71cAng6AMqjudfB6KS6j2jPAwqbN9a2wyBHp6TvXCX/C13yxTHpaCLh5mM60/jHcmGah/8d01n0ZHsqGLe0qqrHvoBbU+M538oaDN4HPfN7ZOzWqcsbHlm3KDbemWzuC29sbzWHdsb3Yne0FffBu3TIyjXLD4MhKhIV5la2Cs/wx6l6DyDZ8/wmHbXUJZDBxJ/COR6bj1gbT/OrES36+xfMnPpVNrloSB1GMf6AeXOoJGwIW2Xf8mls3iRKhysSwzHE/lz/YcPGD5w7d+onLJYT0LGN/BJrIjHzQH/pBODeYW+ibXcJIOhBZNdDAOj/xdKzq4keuR4CGpoz0PEl++zY5+dHoVV/wW+IzsVcIW6hF8PthjIP3NWZXS/6JX2+lufYTdOvdT4OS5zICg0L8tRi+pwvO6LDmp6GdleukHoWH6sar/nGLd3PK693PtX4zDMPr/XO3zE4sVlP569WxbajSKw/Wtj9sdlS/1BMbQ/Q3h523gGl3PG5uQu3h1+e+F7o71QbmwGTBm9qitI56JKOdz96zJBl/V/V0LGH8El5HiVysjVbjefjW9UpJ6PGwBMxqTx8o0ZKG0SrdXc/ZkcloWuzFcHHfstwm6PW7ijpJ1xabyjlLF87q+jmGX5OcZMow3t5xrVEBwzHca4nE327LDU9fmoYDBncec/26x8jOiSlRyOVv1BXJ/2Q6IZfJrXpT28mcBYejhcnNCmH7jNPB9/uFcdnviKmaC8+xgbr/OQV2wfs5IffCy+WjPkbt/OitI15nHHihTtElRpoRWkgQHogbLcjXnAG6h3w0d/+y2VNqTNa8d7HuAYt71EblyFX8nxYDibiYZmNPVkyF3tqfIy4lX56KjHYFe9i+NXypgv8mg0Vkceenz1lSe5Urd1y82y5HCEVGyil9wboZI+jnyVCRfF517eaM4qiuoXSA4fi7PKXiX6GiZOfYCKeOAZHfip33gdL0Z4l6sfvfiu4iWcT8aYyzVgyx3lgJ2+H+EyT/Ok0PSw87Atd91t7PgTno5UcTyZp6+MzgxQVVczP/QyiA4i25fFbPvQlSHppZSzS1mqm5ShZIoPJ8uXRA6LY3xuAvR+WKu2B9eq7Raw3eF07vm/xFwCeE5IXomSL5Ctj2AjoBisSPcGXEJhhmxOHDz/5Z3PmPOpq1fjVRMS7GPJz6VPSKg953MrW70Y9PjPS3tmtmBooZfAG6LwePSoiRfIPG0fUrVeRlKdR2w82+NNcTHQ7lIgPVBHXF5X4u0Hv3Vcoxfe37kM0/DhMuENl2/290QGe4wTUdTrnUOgiL9dJPgsdh/OKX5i2SQEfcQ81/bbJW7ZUO3fefkXzhk+zsbSIW9X4LX88C1neYr/dLcqQD4G7i/E9wnI/ayRahocCTCpZn/3ox59/eQ3ySac9yPJGQ5iYNxs2GOEvv1bF5uZGHn+/2p9cGm4rhjXCPp2iJ/lYWE9SSmGf/y3ljnqySCqTSg6Hh1Jj0l+px4gRT2vKpufLi3oIAK213dbbEf3w2mSrmNO/8A+tC+ZS5hHHp+ZD6Pwc68+yhIWeBOxUeTdfiN7CGVDfiNoO51tqVXssE5+h7XepCrqQ0Z21ZTmedDWkZtylAK+3raj1Kipwk/CIDxYw37Ks4SqtKrvBRfF2qazz8j30p6p2wgjch/29JahxqTBPZPLqunll3BL58A7wPA/beQJ0m7OY3bUhdBQciO7vtnBduqem2tV1nRpbvKva0dDtuh0C1pKqXIvPdAFuCetxejjWyssPJc+BfRXxJRpkCY+vBIrKvNyPdkXRTn742zPvkKPGb4dx4rubY41fxKzYLfh4YTzMON0CC+qmzMZe4NjQwp+DLbf9ekWz7+56PRXLil6qX3sK4wz75+umvuSJ12ayDKBnM5ayeki0C0GEnNZHP3SR3K6HEXX1telRYTLCu7P9+08OKDL4MTg+fAt8HSULk1ROLdztvs9BDpsOxEyRa8mW+EJ38+h0iWtn+7ejBbaes+7ZWeRnKNqz2tZgxO1c7ScdbP3Z4QGdNxNBi/xnscboYoTPxUtZ4cdGrc6r6L0QqTvCFB4DcJ3Z2unjGQrUSsdqsIuD5rW2dsKe+FZyS8SnC3lunfOyQXyOvQ0N+8xFB2JPtEK9A3onqoMBBEoKa4v+exRWn1dtj+IdeOcFBzC5ZAyEr9URPQRQbwu3S9wOYmW3L0AtvsTzteSf8y3hpB9F47+hLYoUNM0yv4CO43WCptXWcliW42vTjBCaqm2d52KmzwdxVNWOewrF/CPS6VLMtALrVuoTDJU8Egqps8pD4R2xz/xe8xumX9TQMPUJUtbGwHoDCvbvVz4FW2Z/5Fvcsr5TUzPu/3zLQSDitM7la+RNhaJXn6+f9pw3ZiIAeow3n/HKv2XyJY/f9VzzUQ/St1iPvggGK/xifd6qtbVdw+NEf7/CSVWAUfLw559jBSpWStQeL5TW8XtpdhCQlpT1a8mv0ORafJFhn2l4ibD+vF2tM7asMrTQffS6K6sVZ1TqBi5AWFFfP1VlnDjWLucLeLGUfarW+g1zYI94d5UXqeLyOHMcrP/iPXo5FAu/Ul5e+XIhZocXMtfYZSw6pHbcTTHL+qtfvVGKcSv9RT9yw4eP23pTs3WaHxmb1/LeOhfdWNqJb4FVKdfGd1vASuB4IuBmyXDN3e6FB3ScG9eq7mUcavP7U/GMpEFABknuiv85Dnm5dQbRkaNaL2u6HSRrOmhLmHMkYfGFxj7LpsrzfWtXrrKyfNnGzb6eC2wc0P4cL0FbuWaZrzHCcLiiQwK6vdHL8o3PtRWYx4H7XTxF72JY410sgXu3ImS9i+WQSxAnb1TJPmRh6vlAjFZfjZe/r59MYnRjwsiRJ/X3c6gRNjM5H+l09pMObPju/Lqp0+D7EWNeALr3XiwMeXwA/qUs2JoODwg/Jt57vQuWObVSVAUB9MtEuGD+Mv89RYHTfmE6tnE9yVnznU6JvLbNm3DAyxgcwjIZLfVj03EWnvbJkqROAWrJD8dIWOJ0mh6W94X5+deax+ByPgrg+OOCrS2569JblytOBKwaMXHAgtmTPy1A8q2mYs3mVf38Jta7d6RDAvpXy5pvx9wJbOlYDKdw7Ch9hg1mPsEH/3NU5r+gUOhzYMvnYSv0BSpJn2VqdQcAoGIUIKdOPoxkSM2YP2Nc/LqczCkMVnljc+MFIF2ZQs5wEd9I5scZojOSsZPjDYx4GRkyREBiGYQGZohuSVY0B8ftcnm2OOcP0LtjHHad3Q/qTy6XWRf/12kVh4pcuXnyDhzRegl6ctECZ9DTgVFAUHzOsw3qY/GY34m9mM7NVYr84qNYCvzWq0kd/Njr+ZMYnZYpLK+MU5bNOPz2+YKuWpa8FNlH9hejKPt7TqY5cjh42xWgW82RAZ7Lx4yKvuBDHHzJtAPmwdXjxlsU+0G+WQVAo1tHLUI37RsILwxbsTfRWfvxsCMP/ILHY/PV700eKSdq394kCsUVVupOvDO/wkRCX70+FFPnjh590TW8jDJXXr5cETkZxeO9ELw7zDkopwMeJprmXSbOiUrehwge5lkQe+175u1gjL6AWd1H6zCODvSlQJMoMtpu9VdEi2YS8eloxXDctf7AL4ke/6OzraukwcDHoMc/edWZxo59/vE57ZN+RPQFcOLSazmmOG7Ok5jr/E2qbskL50/C4jOnhCXe7XO8opfUi9TI7O3N4aOMF9nyDujKYkBHl0r7cVhTPcJXbi31ji/+dsB87rnnlr/z/rIbEs+zzzzHQZyRYhp16/JsuqM4G2Zh+KyVHF67ilZKqkUydXXTV+MoVz5X+/IWkVkIAM0+6zZ+fgpY7s/CZkcpy7pUPj25eBPxim6qq5vkawxNZEUWIQcAACNWSURBVHEk8mLstS+XuX1l7c9b/wZNL3cCpcsRpEk8tyjFmXY9vt0+bprXTDRi+OWPJxBNBZizY9DL5ZhHfszL2boLvVg/OZmokXuBC+x4zP6vmHEvxZc8iq/ThSZZ4GuJF1+PK+b+AZJOkXyc0f2yL9Uxa6Qv/lJgVuSvFqusDgfo73yw7Gw8w7sGuh1KPRCqrNgdXawn4PdoOjAPpDcfIZ+HlOSTVDrZMgrdig9Yc7q4bDT0kFyULZ7jqoeNG4bW/wG5+FLj1fL+fcr/nkrzfoUhkve8c9sw0ikafmtvPzIdhbd0AP29+UQz/1JYu37yFtEv0Gh78fEkkAvosS/gKDROXQCSaUJnGv+efoxo/BFEH/4PFwV09+H9W6jtsyDpis9J6fmSpIUm8eKLnOMXpwImeSiij3W9dX7Uo7j719SMGeJHpi15sZd2P3wcD/aTB8y5WeiHv13wWvRD//lUTZi4dsbz9dPPapg1eal/+eJJYE/5bYqnPbfmurqpmBtgPZSb08WBlQW53p9YJOZ/DpWiWzFMFLiXUFXEnnflNPdlJHZUbqaOx+Ef0LsSFm4XaV3gw+gWX7Ykfys3Yxjo8WuIfvkdHH0RB18BOdYuAO2m8bXQhEdyI/T3UUk47lCiO9Gj0FSAocyP3sfEO8xF4fTSOaFL+syTjiayqXwbqBf5a+WKnhLw+/YNv45srPOTFQyQXOyHvy15N0U3HY305W56ykpFWdkcT4zthKm6etxeeOfwQvlzAM2rFjRMe9CfVPG5UUFDg1INKH5K2VMIWaEbwaF/DbILxGMjzlnpaXmHDp2Ig2/ou2kjMxAxCW5N5/LyOzNEeyJjuOQzvCRLPTHHmXBq3o/se+FHqAPw+gZ09QBtwieIQb3wbvMGottPA1BuCqabu+xfQmv8UvS2/PsqTGoDsLPjx5o/m7rPdHF6HNPkmvnZ6XIctxmVzRt/TXTUvuhV8D/Jw9bJ/zZBz2UoL+uTtJjOaYgTupumXzOv8HE4GbdAvdZ+d1DjtbUoyzwuknenxlWPGrOjd/6241RW7Dw/qWOs+J25cyd/4Uem1Hkx63yE3zwCMZeMGHYQA1bJuaFDx+8DINmqrTPW0DDtXbw7T/rNB56xsbxaJJ1cU7TpJ6Anvy7pmFw0MN85e/bkNS6y70vMkK/3JWRZu1TVjvf9bPlKowSZfQN6vAw+P7I+Sv4B6gq3noiZ6D5bv28+h7mdaJHfMhGnp7la+fwIMuDpj6IAYEUnTPE7hug09A4cgeHMisqWvOnkuUgfY87WeeOJxh5O9MJcpnh3m1HZOG8C0Zv/Tc0Xa5C8cVjy7KbJNcfLj/nZcZyTZ5+ZsqVL65+lHvaTIXxMw7HNdK0fmbbgra4efzzqnxi/8eNaf0tRP7kLwhvzM3tZElD0eOvNWJdEvfk4xnWIN87ic4XD/reD5feHIpEL3LnjjWTwUTnDTc9+rRo7VyqMJ+bvsLTQd8sJvTi+Ksz557LtNZQFzAIDxe8CyuYWe/UJomsxBPLTKThStXdmfm6Rv/400Yw/4iw4jMFncgJ+HG+HgXYHDyMadSbOaxqLlc7dkpLr1xLNw7PzxD+IXq5zBFrIJ9nt0KJXiE4dTnR4LUD651i3nmOe08pviH40jujVBY4iXT8DMTuhic80B6STcTofh9np8u1w/blTiOT/8tBWTzTHVuGmUI8kNXsIj8Xp2Dp08oK6aU9l52ybWO4KxK5e1ybuscdslKnwox5Z2xMburn8Odzf1/xJtB438jam9VLLnlLD3Bkv4GCbBXjeqrJzpsZiRvk5WGt+tT7uvbmZAI7+NpJBa/Hvs2ZNW56qPdjVnntu88w77y//FhOnUbHw7MYMGTb2sPlzp+MD3T4cfxtqa8dWoWvyJHwf9oHNB2AIpw98+bK7ChK6akH9tFuEGKyFvhW9AuDYIEqK4v+vDt3RKM8L/8LSMdTjdbdpPdGcvxFdjm/BDcdlB3OWE1PweevjL8XCDIxb3zibaOT3U8GcebsBN447g+he1FlmvAugxpBs954c4zjRJb7Q2ecKwFnfRVf8flg8dT/RRpeJuBwzHkFFAuV6LQ7mujyHGcDdIC5pMV3C7EsYwURY5BUO/DidXueo9ux4swx0sU72WwYrFrsbL8ZWfuVagx9gfhJeXDwk3h3GIhfV1U151btEu+HES+nPqRAVBCT8pZqbu6Zm/FAs/0JLpIQcNnPxnxur99fLI/g4Os45YtX6sVx781WzVVF+ozfe3Fz33HMPbwz079ycSQ68Y2EcNfwA1tej27X03ZCh48YMqRn7UcSiBuT9AjxLNfic74RwN1QUu7b8qQ1dKrvdrZcsUAtd3UPNWI/OTeKjdWUFD6/+Gt3vJxH1u8I5XrUr3v3P3kY3NbrXebzdq9tmIID8F0TDzySq7OxVCqbcA934fya65PdY9nY/0d1/xHr0zxx5Bs5M7gPk8ednY/06KgNVI4l2B4Cv+pao/llM0luaKsWgLLr0sHBJnPta6CLD1xJ2eOvVpMTqepFulz5mu98cRVUJhvJTAe3fHKO78DKcHGR3qmIZCpWMQdjXCA+VP4f6OWqwHc9hTXMPeZS9lg7jvGGvvK3FhyGA0Oy5C29qrfS8pjN/3tSnh9SOfQdggI+Qd4dJZfh40b0s8dWyyEkAl+28S9sHQT8yv8C7NpZh05xmy+5G5y+dJ4f3f691jZ9fDWaMqZamq62d2C1iNd0fi8a+5yeH+K5dN2vWP1OA0M8H0p0Wd7u3juOtYXlJ29Rrif473TuY99+d6Mf3YQ05xrq/e74/MNdL1qUr0fcvJJqLfFyPZ3zALnps5jCvgZ81jegO5Pvhv6IysLQlr/4108PM6X5s5Vp85tFlOCxxlt/JZKysNB1P8MEynKn+c2edWF0z7jb/csWROP74s7s3W/Qkb+LhJwXc0lU9Ond90I9Me+HFZKc1fvNqRdX2fmWKzT+7btHvcV8PDpIOQCef73DWJO3KrBVCS8Sns6x9ec05S2Hi4qV+pcOh8B98yuRkr6ub9jbKMyMno5vBsn46ZOjY4W5yKVyPGnVa12ar+T+ocPkDc+yI2b3LDimtcy5PPg9S6wG6X8tvM4DofAD5n7BkbfhZRGXlfjWk5y+HnhN/iO7+9xxg33aHJJ8AaZKSCrZM18GXr3WZTGGdT+TFTycjoN4Bxs+56AkXCqFW1MKCiehMAbQ0LhxcM+66TPGtRecW3Mo1Kx/BGCDGifw5gN6NzzzzMM8j6HAOLfQv/BYKj72v4Qq/+v3yD64deyGGeNAFGNBZ5KPb0H8ae+/Z51EMW8W7Fr3LRyPWxTyMgGf2QO9S+KwpNQ3DQ/hIFt5hHonvdxkVpnAsaj1RaqDOBzNt3LzuKdg3wETK0NXptukNDuj70Bu4XasLf8vy0NijL9GZ6M28DS3yoWcRYZpnUVxZGdFJAPY6pHPFzUR87KmArJcEBYh1GQFilhe62xc58SWer3V5ohX0Eb3tJSvthWfBvGmLsJHIPYHya8V+jbGp3+HFFssFUhNUiMcgZ897429I/1j/OtTyrpXdS6aXwX/+c0go5RvQYxQ7BTYt0sudI79aND9PmHz5S4pZt2vkIMHuQYS8yvD4M/oAbvHKr/EdF6Go79Y9QPd6TUdBg/F5JA8HUNoFk/2eqh42dlQA2YKLcMt81ZrlaJlbtX6VY8jppe36lf0jnVxgQFfO+Gx9OqWtTuuCSWsnXoOu7SXoWsfQT1lF62ShshPRDy8jakC6l0wi6urxvdSBWM+p0Jnmhh6+lnjxhUeuxUdVAzc9eaWn0Y7DZSHrl7DLsiBFwDnRv8FY4n+c5TdBNAST4TXxOEVsPrrUzgqiIRSyrnCPkwXRU6oy6Kb2DegoS3+M657almUaMnpiH0xufBot87zBC6/xoGKXpWtF93vxUVnpLx1UA3xu+oPW+XPFnrzZtVPoMthslb+y4POJLXntlnrtGLTG2s7xmDla5s/i2a8JkIu12Or4FHuPjjTCgQE9rmteGp2tRyrD5MVjL3eAfMKVRJ0w1t0WrhuA/Ce/dYD9rEuIyrUKBZ68jM4NuTqvxAmNryXMCjmcjsb0drx/Oxctk+ODJzCghxpbMIcX+ujNEWth9bAxRwbT4E+qqnbCCKyJfx0v7mH+JB1udJPOmV83o0NOhhN7YH7bfAn78bHv+B3Dho3dxY9MoXhx+EmttaF5EVpXowuiU6l9it3jwJXCkCJMRCqyU/T7IqdAvBTOCqmfBUkH34BKLDa6t6p67OzqURN3CqIjHxk+dz4Sa56JZ6cqiJ5QSP0421bH+QL63CCZKojMIccR/RnLz07HxNJsa9ULkphHJb3R9X7VrUSzsdxN1qILMHtRofMKeOs0CQuYs06hSZivyzvOhDgulu6eb5j+b7QC7tRpfsJ4kXaIRVXDkOqxDxTrha6uHrMf1v/+y4pF8eISHgr/Dj0sG0Kdys/xL9m+JLp32f4/uJ++J8ahlN2bItbc6uoJB7VWiYcMn7g3gOBvVozmoJLma9Z3tjzimdxq+fKm4lcyu5RjaEA1ZstLPnHcFbygbnpdPjq8yj5fN/3veG4e8crv5sP9Gx7b3PQW7ufl3P3tji/0NaeBiuCkjZsbP0Tage41l3d+3fSHsuUtP0D/N8ZpFX2TLYGixHXHN/KnU4n6DCyK+ryVDtiZ6B5MxtTXr4tSAWq+zhTmOAZmPZ5p7HQw1+OT4S/V+4SaTsd12/UtvxQzb14MWkJ8QMOYLHdGdFPz+wDeO2trx2uzG4NqxQrFoWMPGVw9dnoUhwEjjRNwE4O/Xxadm60mHjyXpSXJE3vwqE8LkivIDYhSZAF/lHmCURAdXmS4pwXPyX9izU1v42P8g7zua4YEo5a6IkNUwcjzn5m8AiNxmC1cNFf01rme8149+p6Dz96bOs1PGJXtrrifN23YtPZLVPBv5wqbH3kvvHyMa1XNuLOQxgcYw/8tZAI9p+it+6B7l65YqpXdJWEgO1/GWKxHn4zI72VkKEZEKIwjURfidfY9YbgYuUmv8503nENcUJ1PAeH03A6V7wYDudtlogufxDv+I+pjatPxRclWMX3uumrcvGk+XkjUnvJ2OHpdvYT17tNwmtn0hoYpH3rRWHXMKb2sdY1DFcWGYbrdcNy7Pb3I5eJRodAN2OUu8LrZwdVj0j1FGZPFY7N0QcOMQtgxYxrZInj2McY2Z2fjyR2nlqMcd4Yo/ER9/eML0ZrxZQNdP4+PU2PzYCiowsDr0fjw76PHFyuM5+/WbfuV/wLjo03FSoN7pWKbmz/kSm1B01DqbTyz++dj9yD54fJENzfNx7u3fRD5FjJKzVeWmhlW6oXKyq6vBJm/wg2EKEWPjsXU0ei1GM49MC3S8UNQ6qPKcHmNl3McGALyctaJdAG2Lyn+2Iw7l736E/0MFftdAw1PurUV9vq1F5w93r/xMH/LAeHU9IUmvsTK3dI/VS15zlFLO+YmJGIG8YcNGz9wczRWj4/uQKEVwodJP4WJPwbIf4om9mdA+2/QstkKL2Zv0Hrj49EbNa/tQEeNMo9WeNrMqhkjhx04Pp+9ytsboLMZBteMmQG7Hp/WJP6JX+JD+oJFoQ9Qmf4A9+4T+OvKrPCGWEVkQyyGdazRaC+ywr0wLNKbQlYvrKDAdWx31L6rcJ9385+kIwFAw8of6yVUAo4OooOfPcg9iTHixSGLNmMifW+sA++nVPiJBXVT8qz0ODlCb8MjKOPJQfKXSQb5PhWVwkcyxReTXjV83O7Y6qwOlfuCDYNwfnEvo9D5JlrHaJ2hJ9qyVioVWonnBZMLrfV49fHMWH3Q27cNeLC3hL2/xF4FrQAq9XG40qrmE+e82JDhIC+HFvoeUFCUNYc5M8az2c/EmPWonD0ROVUVjOF+rDD6/U9xuExzqkq2tA7EqbG5r9LJ6zQJV9LO6HJfmlthx+CoGjFhZ2qKzINpB7T3EuED8hSGEybk20Jrj4Bu97g0bcKOZnm2ZtrwIcAruLQsVPZdbO8RaY41fYCs8FtZEIdemwvRAi5Iwwm7FR7YHLMYpAriAGZLtutXvnummdcFSSSHEj6GN6asWXh+CjJ8liO5VonGw/NpWUjVYDLwx14TRAMkP4ddtnm8NsjSk/wSZmk+ke1vF2CW+xk4crVocz285bNxI07iPgVH1lzSEsxZgw7m6V7zdDSWE3o6eZ3GvPigbElgzgVeMHvKksryLoehOh14TJ31tLlT9EQhwLzNyxEwA88999iXGLZATbh9Op4QprpWHM4bqtTVTV6MyllBWtPFsAYAAuOValahdFsh649tCeZcDt5NskyVfwefy5cLVa421aPojVCnilo/YM75zRvQ44Vuu9nunIGGB4muPBLHpi6NZ6eVvY8XE407Ah1lj3pLmIFYgFokdHDW44TupunXrMPROUfUbUn+nDmPLuvRZcehGIP8R3ssN8DgtnJ1UN4t8/ZYdj3PPHM5pNT1Oq0dhC0VUjdv17eihiedSX5BvErCpeiHy4Ic2tKyJGidf9Wj84AHWsa0PgUVqa+7dx1Qg/fp/tZPvXAp4nn6c/++FUcEmRTrhoVAucI4+ukYR2/7jykvX7sYwzgHHhWoHIGE5jxFdOlpROswdJbOsYUFlNPFMy0bT7o4ncZhcRadpD6mf8nlluhjfPBkmPt2jG35OWaxTUyFD88mjMP9aEHDNNRIC+faY5e7Xnrefa0QG7boOosRZjCjUPj0TGPbVTVjHsV46kmFSLuQXe6Sn6rqMS/hXTlcroP4sMFPFzRMvzmIbDFlYPvjsGfF3YUeVy9mntHL+C16ds7M59jnwrTQY/QMQAnTudvYrcdchesxhDX19wDRXCiaZ15Z/62TsFMc5vHoYK4DLCehZ8MdJ1lw8+h87ji3To53eCK0Fc0UlVuqv6B++qOdyjpjVrKaUso2wC1+uUyFvlNoMC/lMnvNGz5of0BLHWNpCmNqpedQEYugN+iOrp3L980E5pzrrp0qfszjy6VXAidHGJ89j8sSNH8An0V779kXk4ZKzy2on/Ekde+yDyY73p1PGVunZCoGMH8IM9kPyAfMOa8FAXSMo3NXU2mMYfIysceuILppPFHjuuLcj7XYB+OHvLHN1dCvI27Ly5QM6Kw6aOtMSYB2qMwnvBwnYZ3OnIrmq4Ultrc+56sNHHfBYwOa74XC4Sp8dBa0QRYyJon8rMdH/icjhh10JJ8elZFxC4+YXz/9rxXhciyDohIbi1azVFnFAfMbpl80c+ZktCAyO47H3qlj8XIuz8zVdjH2WLqlAi2PxOdnVciyTuN94tuuBNlTXvD0I6tQYT4vZJXtjefoMXDrX+Dswq0Sq2L4HjyK53zv5+unn+ZlWVqubAk85OLLGY9tNH4Bc/0hJ2NrMmyLZcE/x9K2HeAXyn3wDtGPxmFR04eF0ch3QB4zPexVu8iE6FK0BTDl3zi3BQbXjB2NpUuXoVNlOOIK9sy708l2jQ/KBiT9F9Wl/CZ9rDWbTNC49t7l7i43NuaYiB63m9F9uqM7rjWunRaemqzCdOv8udNf8ZtmfHnldJThQL+ywl+MLnfRjWEqjBla9+D96CS0rL6i98NW2XFe92vIqqsVI4cOnbhHJNp8Hp6jM/DJ7dWKSackhedpE74F01RZ+bXz50z+X0pknhcF+7hZp9Bu1Ewf5JmfwoozUJZ3x7g6hiiPQEU5X/fM41j7fibRBnybvTgBW+F1Xws9k+/ml2vxk3JYEk07qaX0SZJkQm4L8HpVKxI7D2Nrp+ID1tcdX4xr3KpPUQv/B2HbzWIDueS/owE6l4t33IpYb4xG8HT8jgP4VDK9qA4zjXHvppZR6IG6uqmf55MW79X+5YrmM1F5/xWAfRe/ukKh0Pnz66bd5VfOK//w4Sf3a4o0/hjLvsbgW7IL7Ns1VdbeuOddFaK/7bV733+Vcss8Nd8tr3AvOn+9onkCyoiWGY1Cmbu15CosBc/Remjkc8+ndO3U/ekgG9Z4yRFDQ8EcWukL8MAOLpjCfBUxoPMIEZ+a+b0rsfXB1agYBSgydvOnP11B9Fd0QCCYaFHr+WO10tLW6dnCuky6sNDEd+tK0udiMhy3Po3zYAE+m3zevEWHRxWNwct8DD6wGHMvXMudJ0vh1syyQuGHRtTuNzefTWI8FKcFC9YZb9WCmIXQo0fv6BNP3Fek8aksCQeM4h361IbGE3HvhuGVOzgIQKZNGpt44L79F+/x82UhmuF3yVBanWmIQ4ZP2J8i0aORzt7YNGYP1Mb7oAepKz72XfB52ogyrcY+d2vgLw6pUL1VRvUL5kxr1cYSnwjWo0d3/sJQZeW6CJaltfG64DSGLABp9OiLKtc1fj5UWVY17I/lr3Qonque+aoGgHMF8C3+Ydb6C2Gr58y6ugfQMi+us29YoZLAJjM/gK6/FUpf3noYfPkXjfuHHIsW9sOYrdLDu+q1q4kuO4loPuabiS6/wO1Oja2eTkcmushLvPhCL6PT1WL6p1wa358FRo8+tceGzRsPRb3tMOwWdgA+sAPxQR2ErrltoYmtncWplWB4j5T1vqXU66Fw+dxCd6NlSdxEwQJcgbGs0EFRK3Yw7sUOAEn+IIOmegIge+I+dkMlqwnvHINSI+4oNo2wvsYr+Bkq+J+iwv9pqEvZwtbqQTE3rXQtADBXOGJ5581RtTPe6QHYrW8ggL4/npku8QoX+2GUYB1o6/C8rUWFci3e/bXgXxkOhd+Nde70Fo/ft0Upc3ys/GXJOpu603r6HC+OD8T0l4Yvbh3QGUAZ2Lfbg+i3M4h2hJ/LfYThjQvHYLx8sQPAUjFgvezYeumA2Y708C+bvDvOfc3qHdoq2pp2UK/xR8q4QlqAa++RyIqtm5ujXSIq0hUnunSJhkIxjGeuQ6fPegw4rpk9e/KaQqZpdBkLGAsYCwS1AENCQR1a6ddCIfqnS8DpgK6HO6NH8rfTsF69NnMmX5qNlvkE1L/WJlv4rINB3Q+IpwPiTKmm49Vp6cJhukp9RNdkUmnoxgLGAsYCxgJbhgUKsmzNZapbcF3a43Eb0I3+y6OJ6ia7sh6/fAab01x0DNF6gHlQx+DLzg/467zp5CU+Ceyrof82JyHz31jAWMBYwFhgS7ZAwQEda9JXoiv4xpIwqoCi+JwpCUc2Y9/1E3FuOToTmuP7VzSBdtvPsY3sqc4+8cIrvi6fq4ACvm6+TLp0OsuwvJvGdKaJ7jBdj6VqpsuX7WKcsYCxgLHAFm6BdJCRt0msc6mcVtGrULR/3sryUSDd7NJVrvt6uM9Aon2riF5vIPrqs+Tkt0zyAqhe86aDcDaZTHzp6Ipeo0PpcFSgeBDAOGMBYwFjAWOBLdwCRQF0tinG0g+B9xJ+ZXzdJo6Bl+FOn8ymA7lOlzD7Iie8EqcDvBQoPdgmW9HCl8nPJu+OS94t7lL4jlpKb2ZSa+jGAsYCxgLGAluWBQre5S7mQ8vxNWws27YHlUtLmoFQwFBo7LtpnHmmcZz8hJaOl+NEH4fFpaOJvPCIn45XaOIzr54vonMMmIsBjW8sYCxgLGAswBYoGqCzcvUvrElXdAOH28TpIOoGRwFIyZhcCx9fZ5IXGT++6GUZXa/oSEfTeUVe0TUA8wdFzPjGAsYCxgLGAsYCbIGiArpt4n9hq0NFRduyMOttFBBknwFT93VBPY7pcp1JXpcNEpZ86LKSFtN0cBc603BuNsD8Kl3MhI0FjAWMBYwFjAXYAkUHdOzUZKl/213v17WZyQWg0wGlnikBWvElLp28xOXy9TR1XgFqprl50sVZ9FuA+SW6ChM2FjAWMBYwFjAWEAsUHdAlIYypX4nwRfhFhNZqvg6QEnaDKGcmHY3pIuMO87XbuXXosu44kXXzpPLxBLjzsFf774Td+MYCxgLGAsYCxgJuC6RChzu2CNc4wGUw1P4bINm/COpTVeqz0vWZ6u6w+1rkMtE5ni2nA3FqyrmvvMgr7DVdRhPVh/RyboWGw1jAWMBYwFhgS7ZAq7XQxcjofn8eBx8ehOs5Qiu6rwNvunCuag3LCI/Iix808yIvellPangmVvMfbMA8qIGNnLGAsYCxwJZlgVYHdDav+ictp31oFADsF/g1F83kOkB6TUSX0cPpADiXTl2eed3XTBO9Ela0GTMbLqclNFp9QN8w2ThjAWMBYwFjAWOBXBZIBzG5ZAoab52I84xjhM3TycPxZz6TZrDkEXv2ufvc3YWu03Ve7lLX5fhal2det2NLpqO7+fRrXcYJvwPQP1UtpUU6mwkbCxgLGAsYCxgL5LJAm7TQ9Uxhrfrr1AugXoylbQywbtDkxJnmpuu8epj5BahZJpMTnkzxOl30JGU4dDsNokMNmOuGMmFjAWMBYwFjAa8WEGjxyl9UPmwXiyPO6D78+hYkIW5ZS+uaIVNa6OJLnPtalxMeXZ5p7Nh6SVC2Sb7+OfJfQeYszGKf6UvWMBsLGAsYCxgLGAtoFmjzFrqWF8LStqepE+0HoHxSpxckLMArPivVw5KIVHE4TsI6ry6jh0Xe7es63HEWTePyGjB3G8ZcGwsYCxgLGAv4tUA2uPGrq6D8aK2fC0C9BaDbNbBid0tbWtu67yXsbsF7BfJMfArnxSu6BEef3h+4bEbQWMBYwFjAWMBYQLNASbXQtXxxa/0egPmBAD4+sS2Yk+qK+KxFwuzzT0BXpzMfu2w0hyPzf9Hr5gjRAqqgAwyYuw1jro0FjAWMBYwF8rFAyQI6FwqgvhiAWwVgvQqX/neYSweqOo3DbmCXePYljGDCpaMlIjMEnDSasBztV3Q61aj3aWkGTkM2FjAWMBYwFjAWCGQBaYMGEm5Nofj56g8hzT09p8vgy93lepe53sWu0yXMvsgJr8TxtfwQtB1b0A3ybpqit7Hj22nYJGZhXMp4xgLGAsYCxgLGAgW1QEm30PWSorX+Gq55edtt8N0QqrMmw8LltJAdutDYl+qM0JhDwJhpQk8nz7zshMe5cv4naTHou5nCWI5mwFy3kAkbCxgLGAsYCxTYAgJpBVZbXHXWSTQcre4HkMoOWVNiYJXWte4L3U3jTn1pgYuv8zCNr5OAjYsMTtEn4DsDM9jrM3AYsrGAsYCxgLGAsUDBLNBuWuh6idVj9j7w+6L1y13wmZ0AL/vS8hZflxIa++zkOpO8w5Xt//1ole9vwDybiUycsYCxgLGAsUAhLSAQVkidraoLp7dNQIJ3oTW8TYuEpZUtLWu55la2tLzdNAZxiRPfLc/X6ZzCHvVE56il9ES6aEMzFjAWMBYwFjAWKJYF2mULXTcGTm+bgtYwt9Yzb0YjLW0WlHC6qkw6mi7jDvN10k3lfBgwTxrEhIwFjAWMBYwFWs8CmSCs9XJQwJRw0MtZAOxb8ethq5XWt7uF7W55u69FLhOd49lyTuVgNcIXAcizd/8XsJxGlbGAsYCxgLGAsYDbAu2+ha4XCAe93A+Q3Q+0uTo9DrwOSVrofCXhXNUa5hMekXFos7BJDLfKDZg71jX/jQWMBYwFjAXayAICU22UfHGStSzA7wn0YwD2DRgP75IYE8/VUs/UMtdb6sxj0Xr8fopJb3cXpwRGq7GAsYCxgLGAsYA/C3SoFroUXSmysG79Dp5pDuCd36J1zYzuVneyC13vTndUSrXHaZ3PQ6ucZ7AbMBeDG99YwFjAWMBYoM0tIFDV5hkpVgbs1vo4uhCt9D8kWusMzNzq1lveEhZfb80zjVvlUfo5fUh3cYWhWPk1eo0FjAWMBYwFjAWCWKDDA7oYxTqedsVu8A9g45jBLYA8HYjrgB6jBiqnM9WbZg92safxjQWMBYwFjAVKywIdsss9nYnVEzjo5TCqRtzl+DXaPOna2VLF4bgQbUB3/cX0P6o1YG5bzPwzFjAWMBYwFihRCwh8lWj2ipMt61jaDZB+I1rqY+ytXlu20C10qk9Di/5n6i1aUpxcGK3GAsYCxgLGAsYChbPAFgnoYj5rKB0CUL8MoD4Kv23wW47rWYi/Wf3XnIwmdjK+sYCxgLGAsYCxQLuxgFWLA06NMxYwFjAWMBYwFjAWMBYwFjAWMBYwFjAWMBZoKwv8P30cMktjuWU+AAAAAElFTkSuQmCC;clipPath=inset(0% 70.67% 0% 0%);" parent="1" vertex="1">
          <mxGeometry x="70" y="325" width="102.98" height="110" as="geometry" />
        </mxCell>
        <mxCell id="1hTfNBWOg6Z33aZirMSY-9" value="" style="group" parent="1" vertex="1" connectable="0">
          <mxGeometry x="439.995" y="365.005" width="169.37" height="30" as="geometry" />
        </mxCell>
        <mxCell id="1hTfNBWOg6Z33aZirMSY-4" value="" style="strokeWidth=2;html=1;shape=mxgraph.lean_mapping.buffer_or_safety_stock;rotation=90;" parent="1hTfNBWOg6Z33aZirMSY-9" vertex="1">
          <mxGeometry x="28.125" y="-28.125" width="30" height="86.25" as="geometry" />
        </mxCell>
        <mxCell id="1hTfNBWOg6Z33aZirMSY-5" value="" style="strokeWidth=2;html=1;shape=mxgraph.lean_mapping.buffer_or_safety_stock;rotation=90;" parent="1hTfNBWOg6Z33aZirMSY-9" vertex="1">
          <mxGeometry x="111.245" y="-28.125" width="30" height="86.25" as="geometry" />
        </mxCell>
        <mxCell id="1hTfNBWOg6Z33aZirMSY-11" value="Kafka (encrypted topic)" style="text;html=1;strokeColor=none;fillColor=none;align=center;verticalAlign=middle;whiteSpace=wrap;rounded=0;" parent="1" vertex="1">
          <mxGeometry x="449.68" y="335" width="150" height="30" as="geometry" />
        </mxCell>
        <mxCell id="1hTfNBWOg6Z33aZirMSY-13" style="edgeStyle=orthogonalEdgeStyle;rounded=0;orthogonalLoop=1;jettySize=auto;html=1;exitX=0;exitY=0.5;exitDx=0;exitDy=0;" parent="1" source="1hTfNBWOg6Z33aZirMSY-12" edge="1">
          <mxGeometry relative="1" as="geometry">
            <mxPoint x="610" y="380" as="targetPoint" />
          </mxGeometry>
        </mxCell>
        <mxCell id="1hTfNBWOg6Z33aZirMSY-19" style="edgeStyle=orthogonalEdgeStyle;rounded=0;orthogonalLoop=1;jettySize=auto;html=1;exitX=0.5;exitY=1;exitDx=0;exitDy=0;entryX=0.5;entryY=0;entryDx=0;entryDy=0;" parent="1" source="1hTfNBWOg6Z33aZirMSY-12" target="1hTfNBWOg6Z33aZirMSY-17" edge="1">
          <mxGeometry relative="1" as="geometry" />
        </mxCell>
        <mxCell id="1hTfNBWOg6Z33aZirMSY-26" style="edgeStyle=orthogonalEdgeStyle;rounded=0;orthogonalLoop=1;jettySize=auto;html=1;exitX=1;exitY=0.5;exitDx=0;exitDy=0;entryX=0;entryY=0.5;entryDx=0;entryDy=0;entryPerimeter=0;" parent="1" source="1hTfNBWOg6Z33aZirMSY-12" target="1hTfNBWOg6Z33aZirMSY-25" edge="1">
          <mxGeometry relative="1" as="geometry" />
        </mxCell>
        <mxCell id="1hTfNBWOg6Z33aZirMSY-12" value="Aggregator" style="rounded=1;whiteSpace=wrap;html=1;strokeColor=#10739e;fillColor=#b1ddf0;" parent="1" vertex="1">
          <mxGeometry x="720" y="350" width="100" height="60" as="geometry" />
        </mxCell>
        <mxCell id="1hTfNBWOg6Z33aZirMSY-15" value="" style="group" parent="1" vertex="1" connectable="0">
          <mxGeometry x="439.995" y="505.005" width="169.37" height="30" as="geometry" />
        </mxCell>
        <mxCell id="1hTfNBWOg6Z33aZirMSY-16" value="" style="strokeWidth=2;html=1;shape=mxgraph.lean_mapping.buffer_or_safety_stock;rotation=90;" parent="1hTfNBWOg6Z33aZirMSY-15" vertex="1">
          <mxGeometry x="28.125" y="-28.125" width="30" height="86.25" as="geometry" />
        </mxCell>
        <mxCell id="1hTfNBWOg6Z33aZirMSY-17" value="" style="strokeWidth=2;html=1;shape=mxgraph.lean_mapping.buffer_or_safety_stock;rotation=90;" parent="1hTfNBWOg6Z33aZirMSY-15" vertex="1">
          <mxGeometry x="111.245" y="-28.125" width="30" height="86.25" as="geometry" />
        </mxCell>
        <mxCell id="1hTfNBWOg6Z33aZirMSY-18" value="Kafka (decrypted topic)" style="text;html=1;strokeColor=none;fillColor=none;align=center;verticalAlign=middle;whiteSpace=wrap;rounded=0;" parent="1" vertex="1">
          <mxGeometry x="449.68" y="475" width="150" height="30" as="geometry" />
        </mxCell>
        <mxCell id="1hTfNBWOg6Z33aZirMSY-24" style="edgeStyle=orthogonalEdgeStyle;rounded=0;orthogonalLoop=1;jettySize=auto;html=1;exitX=0;exitY=0.5;exitDx=0;exitDy=0;entryX=0.96;entryY=0.538;entryDx=0;entryDy=0;entryPerimeter=0;" parent="1" source="1hTfNBWOg6Z33aZirMSY-21" target="1hTfNBWOg6Z33aZirMSY-23" edge="1">
          <mxGeometry relative="1" as="geometry" />
        </mxCell>
        <mxCell id="1hTfNBWOg6Z33aZirMSY-21" value="Data Lake Sink" style="rounded=1;whiteSpace=wrap;html=1;strokeColor=#10739e;fillColor=#b1ddf0;" parent="1" vertex="1">
          <mxGeometry x="245" y="490.01" width="100" height="60" as="geometry" />
        </mxCell>
        <mxCell id="1hTfNBWOg6Z33aZirMSY-22" style="edgeStyle=orthogonalEdgeStyle;rounded=0;orthogonalLoop=1;jettySize=auto;html=1;exitX=0.5;exitY=1;exitDx=0;exitDy=0;entryX=1;entryY=0.5;entryDx=0;entryDy=0;startArrow=classic;startFill=1;endArrow=none;endFill=0;" parent="1" source="1hTfNBWOg6Z33aZirMSY-16" target="1hTfNBWOg6Z33aZirMSY-21" edge="1">
          <mxGeometry relative="1" as="geometry" />
        </mxCell>
        <mxCell id="1hTfNBWOg6Z33aZirMSY-23" value="Data Lake&lt;br&gt;(currently S3)" style="sketch=0;aspect=fixed;html=1;points=[];align=center;image;fontSize=12;image=img/lib/mscae/Data_Lake_Store.svg;strokeColor=default;" parent="1" vertex="1">
          <mxGeometry x="70" y="485.02" width="83.32" height="64.99" as="geometry" />
        </mxCell>
        <mxCell id="1hTfNBWOg6Z33aZirMSY-25" value="Postgres" style="shape=cylinder3;whiteSpace=wrap;html=1;boundedLbl=1;backgroundOutline=1;size=15;strokeColor=#b46504;fillColor=#fad7ac;" parent="1" vertex="1">
          <mxGeometry x="910" y="334" width="70" height="92" as="geometry" />
        </mxCell>
        <mxCell id="1hTfNBWOg6Z33aZirMSY-27" value="&lt;b&gt;Stores:&lt;/b&gt;&lt;br&gt;&lt;span&gt;messages not meeting k threshold, recovered keys, and message counts&lt;/span&gt;" style="text;html=1;strokeColor=none;fillColor=none;align=center;verticalAlign=middle;whiteSpace=wrap;rounded=0;" parent="1" vertex="1">
          <mxGeometry x="846.25" y="426" width="197.5" height="70" as="geometry" />
        </mxCell>
        <mxCell id="1hTfNBWOg6Z33aZirMSY-28" value="Producer" style="text;html=1;strokeColor=none;fillColor=none;align=center;verticalAlign=middle;whiteSpace=wrap;rounded=0;" parent="1" vertex="1">
          <mxGeometry x="360" y="350" width="70" height="30" as="geometry" />
        </mxCell>
        <mxCell id="1hTfNBWOg6Z33aZirMSY-30" value="Producer" style="text;html=1;strokeColor=none;fillColor=none;align=center;verticalAlign=middle;whiteSpace=wrap;rounded=0;" parent="1" vertex="1">
          <mxGeometry x="630" y="490.01" width="70" height="30" as="geometry" />
        </mxCell>
        <mxCell id="1hTfNBWOg6Z33aZirMSY-31" value="Consumer" style="text;html=1;strokeColor=none;fillColor=none;align=center;verticalAlign=middle;whiteSpace=wrap;rounded=0;" parent="1" vertex="1">
          <mxGeometry x="630" y="350" width="70" height="30" as="geometry" />
        </mxCell>
        <mxCell id="1hTfNBWOg6Z33aZirMSY-32" value="Consumer" style="text;html=1;strokeColor=none;fillColor=none;align=center;verticalAlign=middle;whiteSpace=wrap;rounded=0;" parent="1" vertex="1">
          <mxGeometry x="360" y="490.01" width="70" height="30" as="geometry" />
        </mxCell>
        <mxCell id="qs3uBS97Rg9MsLjhkaZX-2" style="edgeStyle=orthogonalEdgeStyle;rounded=0;orthogonalLoop=1;jettySize=auto;html=1;exitX=0.5;exitY=1;exitDx=0;exitDy=0;" edge="1" parent="1" source="qs3uBS97Rg9MsLjhkaZX-1" target="1hTfNBWOg6Z33aZirMSY-12">
          <mxGeometry relative="1" as="geometry" />
        </mxCell>
        <mxCell id="qs3uBS97Rg9MsLjhkaZX-1" value="Scheduler" style="rounded=1;whiteSpace=wrap;html=1;strokeColor=#10739e;fillColor=#b1ddf0;" vertex="1" parent="1">
          <mxGeometry x="720" y="170" width="100" height="60" as="geometry" />
        </mxCell>
        <mxCell id="1hTfNBWOg6Z33aZirMSY-14" value="Scheduled task" style="html=1;verticalLabelPosition=bottom;align=center;labelBackgroundColor=#ffffff;verticalAlign=top;strokeWidth=2;strokeColor=#0080F0;shadow=0;dashed=0;shape=mxgraph.ios7.icons.alarm_clock;" parent="1" vertex="1">
          <mxGeometry x="756.5" y="270" width="27" height="30" as="geometry" />
        </mxCell>
      </root>
    </mxGraphModel>
  </diagram>
</mxfile>
